<svg xmlns="http://www.w3.org/2000/svg" viewBox="0 0 100 100">
  <rect width="100" height="100" rx="20" fill="#09090b"/>
  <circle cx="50" cy="50" r="35" stroke="#a855f7" stroke-width="8" fill="none" opacity="0.3"/>
  <path d="M45 30V60C45 65.5 40.5 70 35 70C29.5 70 25 65.5 25 60C25 54.5 29.5 50 35 50C37.5 50 39.5 51 41 52.5V35L65 30V55C65 60.5 60.5 65 55 65C49.5 65 45 60.5 45 55C45 49.5 49.5 45 55 45C57.5 45 59.5 46 61 47.5V30L45 30Z" fill="#a855f7">
    <animate attributeName="opacity" values="0.5;1;0.5" dur="2s" repeatCount="indefinite" />
  </path>
</svg>